<!-- 
<svg width="24px"  height="24px" viewBox="0 0 28 28"  xmlns="http://www.w3.org/2000/svg">
  <path fill-rule="evenodd" clip-rule="evenodd" d="M21.3722 16.8385C22.827 14.9629 23.5126 12.6036 23.2896 10.2404C23.0665 7.87722 21.9516 5.68777 20.1716 4.11747C18.3916 2.54718 16.0802 1.71398 13.7077 1.7874C11.3351 1.86081 9.07967 2.83533 7.40015 4.51268C5.71917 6.19119 4.74147 8.44752 4.6663 10.8219C4.59113 13.1962 5.42414 15.5098 6.99559 17.2913C8.56703 19.0728 10.7586 20.188 13.1238 20.4098C15.4889 20.6315 17.8496 19.943 19.7248 18.4847L19.775 18.5372L24.724 23.4873C24.8324 23.5957 24.9611 23.6817 25.1027 23.7404C25.2443 23.799 25.3961 23.8292 25.5494 23.8292C25.7027 23.8292 25.8545 23.799 25.9961 23.7404C26.1377 23.6817 26.2664 23.5957 26.3748 23.4873C26.4832 23.3789 26.5692 23.2503 26.6279 23.1086C26.6865 22.967 26.7167 22.8152 26.7167 22.6619C26.7167 22.5086 26.6865 22.3568 26.6279 22.2152C26.5692 22.0736 26.4832 21.9449 26.3748 21.8365L21.4247 16.8875C21.4076 16.8707 21.3901 16.8544 21.3722 16.8385ZM18.9502 6.16351C19.6089 6.81157 20.1327 7.58363 20.4916 8.43517C20.8504 9.2867 21.0371 10.2009 21.0408 11.1249C21.0446 12.0489 20.8654 12.9646 20.5135 13.819C20.1616 14.6734 19.644 15.4497 18.9906 16.1032C18.3372 16.7566 17.5609 17.2741 16.7065 17.626C15.8521 17.9779 14.9364 18.1571 14.0124 18.1533C13.0883 18.1496 12.1742 17.9629 11.3226 17.6041C10.4711 17.2453 9.69904 16.7214 9.05099 16.0627C7.75589 14.7463 7.03342 12.9715 7.04094 11.1249C7.04846 9.27828 7.78536 7.50943 9.09113 6.20365C10.3969 4.89788 12.1657 4.16098 14.0124 4.15346C15.859 4.14594 17.6338 4.86841 18.9502 6.16351Z" fill="black"/>
</svg>
 -->

      <svg
              xmlns="http://www.w3.org/2000/svg"
              fill="currentColor"
              width="36px"
              height='36px'
              
            >
              <path
                fill-rule="evenodd"
                d="M10.5 3.75a6.75 6.75 0 1 0 0 13.5 6.75 6.75 0 0 0 0-13.5ZM2.25 10.5a8.25 8.25 0 1 1 14.59 5.28l4.69 4.69a.75.75 0 1 1-1.06 1.06l-4.69-4.69A8.25 8.25 0 0 1 2.25 10.5Z"
                clip-rule="evenodd"
                
              />
            </svg>
